<svg width="14" height="14" viewBox="0 0 14 14" fill="none" xmlns="http://www.w3.org/2000/svg">
<path d="M9.71384 14H4.28616C1.92314 14 0 12.0769 0 9.71384V4.28616C0 1.92314 1.92314 0 4.28616 0H9.71384C12.0769 0 14 1.92314 14 4.28616V9.71384C14 12.0769 12.0769 14 9.71384 14ZM4.28616 1.047C2.50117 1.047 1.047 2.49935 1.047 4.28616V9.71384C1.047 11.4988 2.49935 12.953 4.28616 12.953H9.71384C11.4988 12.953 12.953 11.5006 12.953 9.71384V4.28616C12.953 2.50117 11.5006 1.047 9.71384 1.047H4.28616Z" fill="white"/>
<path d="M6.99996 10.5714C5.0309 10.5714 3.42853 8.96905 3.42853 7C3.42853 5.03095 5.0309 3.42857 6.99996 3.42857C8.96901 3.42857 10.5714 5.03095 10.5714 7C10.5714 8.96905 8.96901 10.5714 6.99996 10.5714ZM6.99996 4.50844C5.62675 4.50844 4.51022 5.62496 4.51022 6.99817C4.51022 8.37137 5.62675 9.4879 6.99996 9.4879C8.37316 9.4879 9.48969 8.37137 9.48969 6.99817C9.48969 5.62496 8.37316 4.50844 6.99996 4.50844Z" fill="white"/>
<path d="M11.7143 3.14288C11.7143 3.61625 11.3305 4.00002 10.8571 4.00002C10.3838 4.00002 10 3.61625 10 3.14288C10 2.66951 10.3838 2.28574 10.8571 2.28574C11.3305 2.28574 11.7143 2.66951 11.7143 3.14288Z" fill="white"/>
</svg>
