<svg width="319" height="379" viewBox="0 0 319 379" fill="none" xmlns="http://www.w3.org/2000/svg">
<path d="M28.9186 353.428V317.428H37.9186V353.428H28.9186ZM90.1045 330.928V326.428H72.1045V330.928H90.1045ZM63.1045 353.428V317.428H99.1045V353.428H90.1045V339.928H72.1045V353.428H63.1045ZM104.49 353.428V317.428H140.49V353.428H131.49V326.428H126.99V335.428H117.99V326.428H113.49V353.428H104.49ZM165.676 353.428V317.428H201.676V326.428H174.676V344.428H192.676V339.928H179.176V330.928H201.676V353.428H165.676ZM234.062 344.428V326.428H216.062V344.428H234.062ZM207.062 353.428V317.428H243.062V353.428H207.062ZM273.198 344.428L275.448 342.178V328.678L273.198 326.428H257.448V344.428H273.198ZM248.448 353.428V317.428H279.948L284.448 321.928V348.928L279.948 353.428H248.448Z" fill="black"/>
<path d="M265.205 156.681C254.935 146.322 244.668 135.964 234.397 125.605H223.18C210.829 113.261 198.482 100.912 186.131 88.5684V77.4507C175.82 67.119 165.513 56.7919 155.202 46.4602C145.038 56.6436 134.875 66.827 124.712 77.0104C124.564 80.8646 124.42 84.7142 124.272 88.5684C111.921 100.912 99.5743 113.261 87.2232 125.605C83.529 125.632 79.8349 125.654 76.1408 125.681C65.825 136.018 55.5136 146.349 45.1978 156.685C58.3784 177.807 71.5589 198.933 84.744 220.054L84.3988 219.708L19.0161 285.215L28.2111 294.428L91.5539 230.961C96.7231 239.244 101.888 247.523 107.057 255.806C109.998 249.144 112.934 242.483 115.875 235.821H194.488C197.438 242.483 200.392 249.144 203.342 255.806C208.354 247.774 213.366 239.747 218.374 231.715L280.964 294.428L290.159 285.215L225.449 220.378C238.696 199.144 251.949 177.915 265.197 156.681H265.205ZM97.2117 156.609C97.0996 152.481 97.2297 138.582 107.129 125.533C115.821 114.079 127.034 109.879 131.199 108.544C134.651 140.586 138.103 172.632 141.555 204.674C126.774 188.651 111.988 172.632 97.2072 156.609H97.2117ZM213.187 156.609C198.406 172.632 183.621 188.651 168.84 204.674C172.292 172.632 175.744 140.586 179.196 108.544C183.361 109.879 194.577 114.079 203.266 125.533C213.169 138.582 213.295 152.485 213.183 156.609H213.187Z" fill="black" stroke="black" stroke-miterlimit="10"/>
<path d="M78.4514 118.139C89.1513 107.589 99.8558 97.0391 110.556 86.489V78.2048C105.215 83.624 99.8782 89.0387 94.5371 94.4579C83.6267 83.4799 72.7164 72.5018 61.806 61.5237C60.5435 61.9922 58.3587 62.9923 56.2724 65.0645C54.1145 67.2087 53.0893 69.4836 52.6192 70.763L85.3907 103.738C80.6048 108.594 75.8189 113.45 71.033 118.302C73.5043 118.247 75.9756 118.189 78.4469 118.135L78.4514 118.139Z" fill="black" stroke="black" stroke-miterlimit="10"/>
<path d="M232.073 115.817C228.07 111.876 220.845 104.691 220.07 103.999L218.391 102.504L199.778 84.0319V75.7113L214.698 90.8277L247.317 58.0475C248.659 58.69 250.482 59.7533 252.301 61.4726C254.557 63.6082 255.849 65.8433 256.556 67.3319L223.901 100.148C229.11 105.428 234.319 110.704 239.528 115.984C237.043 115.93 234.558 115.871 232.073 115.817Z" fill="black" stroke="black" stroke-miterlimit="10"/>
<path d="M37.2639 73.7784C47.2882 71.6316 55.0608 63.8294 55.0608 63.8294C55.0608 63.8294 62.7339 56.131 64.8681 46.2452C67.9699 31.863 56.3676 16.2315 35.3648 9.38089C51.9771 16.6058 61.4543 30.0364 58.9313 43.3137C57.1046 52.9154 50.6252 59.4007 50.6252 59.4007C50.6252 59.4007 44.0915 65.9401 34.4289 67.7576C21.1807 70.2516 7.70638 60.7762 0.476379 44.1841C7.1864 65.2365 22.8537 76.8632 37.2684 73.7784H37.2639Z" fill="black" stroke="black" stroke-miterlimit="10"/>
<path d="M44.2681 59.2063C45.1217 59.044 46.7656 58.6009 48.1792 57.2542C49.6605 55.8461 50.1302 54.1791 50.3018 53.3457C43.7397 45.0899 37.1732 36.8342 30.6111 28.5784C23.6561 25.6569 16.7012 22.7354 9.74622 19.8094C12.7179 26.6 15.6895 33.395 18.6612 40.1856C27.1968 46.5244 35.737 52.8631 44.2726 59.2019L44.2681 59.2063Z" fill="black" stroke="black" stroke-miterlimit="10"/>
<path d="M268.83 49.2107C249.799 30.2314 250.188 6.37097 250.318 2.4285C244.146 15.6729 244.333 30.7142 250.153 43.5294C237.334 37.7051 222.291 37.5174 209.048 43.6903C212.985 43.5607 236.843 43.1718 255.824 62.2048C274.801 81.2332 274.354 105.089 274.211 109.032C280.437 95.7605 280.267 80.67 274.43 67.8145C287.288 73.6567 302.377 73.8266 315.651 67.6C311.713 67.7385 287.861 68.19 268.83 49.2107Z" fill="black" stroke="black" stroke-miterlimit="10"/>
<path d="M277.036 51.0952C281.427 49.3582 285.813 47.6167 290.203 45.8797L304.064 14.0158C293.659 18.6784 283.255 23.3363 272.847 27.9989C271.277 32.643 269.712 37.2918 268.143 41.9359C268.738 43.2812 269.829 45.3315 271.765 47.331C273.714 49.3444 275.717 50.4778 277.032 51.0906L277.036 51.0952Z" fill="black" stroke="black" stroke-miterlimit="10"/>
</svg>
