<svg width="329" height="159" viewBox="0 0 329 159" fill="none" xmlns="http://www.w3.org/2000/svg">
<line x1="0.000160896" y1="82.5316" x2="329" y2="82.5" stroke="#660000" stroke-width="3"/>
<g filter="url(#filter0_d_2037_4)">
<rect x="124" y="39" width="81" height="81" fill="#3A0505"/>
</g>
<g clip-path="url(#clip0_2037_4)">
<path d="M187.132 85.2824C184.915 83.0528 182.7 80.8232 180.483 78.5936H178.062C175.397 75.9367 172.732 73.2788 170.066 70.6218V68.2288C167.841 66.005 165.617 63.7822 163.391 61.5584C161.198 63.7503 159.005 65.9422 156.811 68.1341C156.779 68.9637 156.748 69.7923 156.716 70.6218C154.051 73.2788 151.386 75.9367 148.721 78.5936C147.923 78.5994 147.126 78.6043 146.329 78.6101C144.102 80.8348 141.877 83.0586 139.651 85.2834C142.495 89.8296 145.34 94.3768 148.185 98.923L148.111 98.8485L134 112.948L135.985 114.931L149.655 101.271C150.771 103.053 151.885 104.835 153.001 106.618C153.636 105.184 154.269 103.751 154.904 102.317H171.87C172.507 103.751 173.144 105.184 173.781 106.618C174.863 104.889 175.944 103.162 177.025 101.433L190.533 114.931L192.517 112.948L178.552 98.9926C181.411 94.4222 184.271 89.8528 187.13 85.2824H187.132ZM150.876 85.2669C150.852 84.3784 150.88 81.3869 153.016 78.5782C154.892 76.1127 157.312 75.2086 158.211 74.9215C158.956 81.8181 159.701 88.7158 160.446 95.6124C157.256 92.1636 154.065 88.7158 150.875 85.2669H150.876ZM175.906 85.2669C172.716 88.7158 169.525 92.1636 166.335 95.6124C167.08 88.7158 167.825 81.8181 168.57 74.9215C169.469 75.2086 171.889 76.1127 173.764 78.5782C175.902 81.3869 175.929 84.3794 175.905 85.2669H175.906Z" fill="#660000" stroke="#660000" stroke-miterlimit="10"/>
<path d="M146.844 76.9442C149.157 74.6798 151.47 72.4154 153.783 70.151V68.3729C152.628 69.536 151.475 70.6982 150.321 71.8614C147.963 69.5051 145.605 67.1489 143.247 64.7926C142.974 64.8932 142.502 65.1078 142.051 65.5526C141.585 66.0128 141.363 66.5011 141.262 66.7756L148.344 73.8531C147.31 74.8954 146.275 75.9377 145.241 76.979C145.775 76.9674 146.309 76.9548 146.843 76.9432L146.844 76.9442Z" fill="#660000" stroke="#660000" stroke-miterlimit="10"/>
<path d="M179.94 76.3449C179.08 75.5028 177.528 73.9674 177.361 73.8195L177 73.5L173 69.5527V67.7746L176.207 71.0049L183.217 64C183.505 64.1373 183.897 64.3645 184.288 64.7319C184.772 65.1883 185.05 65.6659 185.202 65.984L178.184 72.9967C179.304 74.125 180.423 75.2524 181.543 76.3807C181.009 76.3691 180.475 76.3565 179.94 76.3449Z" fill="#660000" stroke="#660000" stroke-miterlimit="10"/>
<path d="M137.92 67.3355C140.065 66.8752 141.728 65.2025 141.728 65.2025C141.728 65.2025 143.37 63.5521 143.827 61.4327C144.49 58.3494 142.008 54.9982 137.513 53.5296C141.068 55.0785 143.096 57.9578 142.556 60.8043C142.165 62.8627 140.779 64.2531 140.779 64.2531C140.779 64.2531 139.381 65.655 137.313 66.0447C134.478 66.5794 131.595 64.548 130.048 60.9909C131.484 65.5042 134.836 67.9968 137.921 67.3355H137.92Z" fill="#660000" stroke="#660000" stroke-miterlimit="10"/>
<path d="M139.363 64.3362C139.546 64.3005 139.898 64.2028 140.201 63.906C140.518 63.5956 140.619 63.2282 140.656 63.0445C139.25 61.2249 137.843 59.4052 136.437 57.5856C134.947 56.9416 133.457 56.2977 131.967 55.6528C132.604 57.1495 133.241 58.6472 133.877 60.1439C135.706 61.541 137.536 62.9381 139.364 64.3353L139.363 64.3362Z" fill="#660000" stroke="#660000" stroke-miterlimit="10"/>
<path d="M187.942 62.1192C183.822 58.0139 183.907 52.8528 183.935 52C182.598 54.8648 182.639 58.1183 183.899 60.8903C181.124 59.6305 177.867 59.5899 175 60.9251C175.853 60.8971 181.017 60.813 185.127 64.9299C189.235 69.0458 189.138 74.206 189.107 75.0588C190.455 72.1882 190.418 68.924 189.154 66.1433C191.938 67.407 195.205 67.4437 198.078 66.0969C197.226 66.1269 192.062 66.2245 187.942 62.1192Z" fill="#660000" stroke="#660000" stroke-miterlimit="10"/>
<path d="M189.584 62.3957C190.534 62.0312 191.483 61.6658 192.433 61.3013L195.433 54.6144C193.181 55.5929 190.93 56.5704 188.677 57.5488C188.338 58.5234 187.999 59.499 187.66 60.4736C187.788 60.7559 188.024 61.1862 188.443 61.6058C188.865 62.0283 189.299 62.2662 189.583 62.3948L189.584 62.3957Z" fill="#660000" stroke="#660000" stroke-miterlimit="10"/>
</g>
<defs>
<filter id="filter0_d_2037_4" x="60" y="0" width="210" height="159" filterUnits="userSpaceOnUse" color-interpolation-filters="sRGB">
<feFlood flood-opacity="0" result="BackgroundImageFix"/>
<feColorMatrix in="SourceAlpha" type="matrix" values="0 0 0 0 0 0 0 0 0 0 0 0 0 0 0 0 0 0 127 0" result="hardAlpha"/>
<feMorphology radius="24" operator="dilate" in="SourceAlpha" result="dilated"/>
<feOffset in="dilated" dx="0" dy="0" result="offsetBlur"/>
<feGaussianBlur in="offsetBlur" stdDeviation="7.5" result="blurred"/>
<feComposite in="blurred" in2="hardAlpha" operator="out" result="composed"/>
<feColorMatrix in="composed" type="matrix" values="0 0 0 0 0.227451 0 0 0 0 0.0196078 0 0 0 0 0.0196078 0 0 0 1 0" result="coloredShadow"/>
<feBlend mode="normal" in="coloredShadow" in2="BackgroundImageFix" result="shadowPass"/>
<feBlend mode="normal" in="SourceGraphic" in2="shadowPass" result="shape"/>
</filter>
<clipPath id="clip0_2037_4">
<rect width="66" height="63" fill="white" transform="translate(130 52)"/>
</clipPath>
</defs>
</svg>
